<?xml version="1.0" standalone="no"?>
<!DOCTYPE svg PUBLIC "-//W3C//DTD SVG 20010904//EN"
 "http://www.w3.org/TR/2001/REC-SVG-20010904/DTD/svg10.dtd">
<svg version="1.0" xmlns="http://www.w3.org/2000/svg"
 width="300.000000pt" height="300.000000pt" viewBox="0 0 300.000000 300.000000"
 preserveAspectRatio="xMidYMid meet">
<metadata>
Created by potrace 1.10, written by Peter Selinger 2001-2011
</metadata>
<g transform="translate(0.000000,300.000000) scale(0.100000,-0.100000)"
fill="#000000" stroke="none">
<path d="M90 1635 l0 -375 138 0 137 1 53 84 c28 47 52 91 52 98 0 8 -16 35
-36 61 l-36 47 -45 -78 c-25 -43 -61 -107 -82 -143 l-36 -65 -5 268 c-7 355
-24 364 -28 14 l-2 -258 -38 3 -37 3 -3 320 c-1 176 0 330 3 341 4 18 12 21
52 20 l47 -1 106 -133 c187 -235 234 -295 304 -387 38 -49 72 -92 76 -95 11
-9 40 -54 40 -63 0 -4 -16 -7 -35 -5 -33 2 -44 12 -133 126 -53 68 -119 152
-147 186 -27 34 -61 77 -75 95 -52 67 -119 136 -126 129 -8 -8 -1 -17 261
-351 l170 -216 82 -1 83 0 -63 78 c-34 42 -167 211 -296 375 l-234 297 -74 0
-73 0 0 -375z m338 -186 c2 -16 -12 -48 -40 -89 -34 -51 -49 -65 -68 -65 -19
0 -24 4 -22 20 2 11 8 22 13 23 5 2 9 8 9 13 0 10 45 83 69 112 19 23 35 17
39 -14z"/>
<path d="M586 1885 c-42 -69 -76 -132 -76 -140 0 -7 18 -34 39 -59 l39 -45 75
117 c77 122 147 240 147 248 0 2 -33 4 -74 4 l-74 0 -76 -125z m164 82 c0 -12
-108 -193 -132 -222 -5 -5 -15 -19 -22 -30 -12 -16 -16 -17 -30 -6 -26 22 -19
53 34 140 28 45 50 85 50 88 0 4 7 15 17 25 19 21 83 25 83 5z"/>
<path d="M940 1840 l0 -160 36 0 37 0 -6 100 c-3 55 -4 100 -2 100 2 0 31 -45
65 -100 55 -90 65 -100 91 -100 l29 0 0 160 0 160 -30 0 -30 0 0 -107 0 -108
-28 50 c-15 28 -44 76 -65 108 -31 49 -41 57 -67 57 l-30 0 0 -160z"/>
<path d="M1230 1994 c0 -3 23 -44 50 -91 47 -80 50 -89 50 -154 l0 -69 34 0
34 0 -5 65 c-5 62 -4 67 37 137 24 40 50 83 58 96 14 21 13 22 -25 22 -38 0
-40 -2 -68 -60 -16 -33 -31 -60 -34 -60 -3 1 -18 28 -33 60 -26 57 -29 60 -62
60 -20 0 -36 -3 -36 -6z"/>
<path d="M1530 1993 c0 -5 20 -41 44 -82 l43 -74 -49 -70 c-26 -39 -48 -75
-48 -79 0 -5 17 -8 38 -6 33 3 40 8 62 50 14 27 28 48 31 48 3 0 16 -22 29
-50 22 -47 26 -50 62 -50 21 0 38 3 38 8 0 4 -22 40 -49 80 l-49 74 44 71 c24
39 44 75 44 79 0 4 -15 8 -33 8 -30 0 -36 -5 -57 -50 -13 -27 -26 -50 -30 -50
-4 0 -17 23 -30 50 -21 45 -27 50 -57 50 -18 0 -33 -3 -33 -7z"/>
<path d="M1900 1970 c0 -28 2 -30 40 -30 l40 0 0 -130 0 -130 30 0 30 0 0 130
0 130 40 0 c38 0 40 2 40 30 l0 30 -110 0 -110 0 0 -30z"/>
<path d="M2170 1998 c-1 -2 -2 -74 -3 -161 l-2 -157 93 0 92 0 0 30 c0 30 0
30 -60 30 l-60 0 0 35 0 35 50 0 c49 0 50 0 50 31 0 31 0 31 -50 27 l-50 -3 0
38 0 37 60 0 c60 0 60 0 60 30 l0 30 -90 0 c-49 0 -90 -1 -90 -2z"/>
<path d="M2470 1978 c-68 -45 -89 -140 -51 -225 24 -51 63 -73 130 -73 68 0
81 7 81 42 0 25 -3 29 -17 23 -49 -22 -82 -18 -113 13 -25 26 -30 38 -30 81 0
83 50 120 133 98 27 -7 28 -6 25 25 -3 33 -3 33 -63 36 -50 2 -67 -1 -95 -20z"/>
<path d="M2690 1995 c0 -3 -1 -74 -1 -157 l0 -153 30 -3 31 -3 0 65 0 66 55 0
55 0 0 -65 0 -65 30 0 30 0 0 160 0 160 -30 0 -30 0 0 -65 0 -65 -55 0 -55 0
0 65 0 65 -30 0 c-16 0 -30 -2 -30 -5z"/>
<path d="M940 1405 l0 -155 995 0 995 0 0 155 0 155 -995 0 -995 0 0 -155z
m1970 0 l0 -135 -974 0 c-629 0 -976 3 -978 10 -1 5 -2 67 0 137 l3 128 975
-3 974 -2 0 -135z"/>
<path d="M1032 1468 c-23 -23 -14 -54 23 -71 36 -17 46 -41 20 -51 -8 -3 -21
2 -30 10 -8 9 -20 14 -27 12 -17 -6 28 -48 50 -48 11 0 27 9 38 21 21 23 12
46 -25 65 -37 19 -47 32 -33 46 9 9 17 8 37 -2 30 -16 42 -8 20 14 -19 19 -56
21 -73 4z"/>
<path d="M1265 1455 c-33 -33 -32 -70 4 -106 35 -34 59 -36 94 -9 33 26 41 63
23 99 -25 48 -82 56 -121 16z m87 -12 c20 -18 24 -63 6 -81 -7 -7 -24 -12 -38
-12 -33 0 -50 17 -50 51 0 51 46 75 82 42z"/>
<path d="M1540 1403 l0 -78 45 0 c30 0 45 4 45 12 0 8 -13 13 -35 13 l-35 0 0
65 c0 37 -4 65 -10 65 -6 0 -10 -32 -10 -77z"/>
<path d="M1760 1415 c0 -59 2 -66 26 -82 24 -15 29 -15 53 -2 23 13 26 21 29
82 2 40 -1 67 -7 67 -6 0 -11 -28 -13 -62 -3 -63 -3 -63 -33 -63 -30 0 -30 0
-33 63 -4 82 -22 80 -22 -3z"/>
<path d="M2010 1470 c0 -5 9 -10 20 -10 18 0 20 -7 20 -70 0 -56 3 -70 15 -70
12 0 15 14 15 70 0 63 2 70 20 70 11 0 20 5 20 10 0 6 -25 10 -55 10 -30 0
-55 -4 -55 -10z"/>
<path d="M2260 1400 c0 -44 4 -80 9 -80 5 0 11 36 13 80 2 59 0 80 -9 80 -9 0
-13 -23 -13 -80z"/>
<path d="M2451 1456 c-49 -52 -2 -149 63 -132 65 16 87 86 41 131 -31 32 -74
33 -104 1z m89 -16 c24 -24 25 -38 4 -68 -20 -28 -69 -30 -84 -3 -16 31 -12
59 12 75 30 21 44 20 68 -4z"/>
<path d="M2720 1410 c0 -38 0 -73 -1 -77 0 -4 4 -9 10 -11 6 -2 11 20 13 54
l3 57 39 -57 c21 -31 42 -56 47 -56 5 0 9 36 9 80 0 63 -3 80 -14 80 -12 0
-13 -11 -9 -55 3 -30 4 -55 1 -55 -2 0 -22 25 -44 55 -21 30 -42 55 -46 55 -5
0 -8 -31 -8 -70z"/>
</g>
</svg>
